<?xml version="1.0" encoding="UTF-8"?> <svg xmlns="http://www.w3.org/2000/svg" width="159" height="160" viewBox="0 0 159 160" fill="none"><path d="M79.0161 0C57.9788 0.235348 37.883 8.75751 23.0899 23.717C8.29683 38.6766 0 58.8664 0 79.905C0 100.944 8.29683 121.133 23.0899 136.093C37.883 151.052 57.9788 159.575 79.0161 159.81H158.926V79.9C158.923 58.7083 150.503 38.3854 135.517 23.4016C120.532 8.41769 100.208 -1.65933e-07 79.0161 0V0ZM143.016 143.86H127.116V103.86C127.116 99.1132 125.709 94.4731 123.071 90.5263C120.434 86.5795 116.686 83.5034 112.3 81.6869C107.915 79.8704 103.089 79.3951 98.4339 80.3212C93.7784 81.2472 89.502 83.533 86.1455 86.8894C82.7891 90.2459 80.5033 94.5223 79.5772 99.1778C78.6512 103.833 79.1265 108.659 80.943 113.044C82.7595 117.43 85.8356 121.178 89.7824 123.815C93.7292 126.452 98.3693 127.86 103.116 127.86H111.116V143.86H103.116C95.2027 143.87 87.4642 141.532 80.8797 137.143C74.2951 132.754 69.1604 126.51 66.1253 119.202C63.0901 111.894 62.2908 103.85 63.8286 96.0871C65.3663 88.3246 69.172 81.1926 74.7641 75.5935C80.3562 69.9943 87.4835 66.1798 95.2441 64.6323C103.005 63.0848 111.05 63.874 118.362 66.9001C125.674 69.9261 131.924 75.053 136.321 81.632C140.719 88.211 143.066 95.9466 143.066 103.86L143.016 143.86Z" fill="#171617"></path></svg> 